<svg width="50" height="50" viewBox="0 0 50 50" fill="none" xmlns="http://www.w3.org/2000/svg">
<path d="M29.1665 22.9167C30.9026 22.9167 32.3783 22.309 33.5936 21.0937C34.8089 19.8785 35.4165 18.4028 35.4165 16.6667C35.4165 14.9305 34.8089 13.4549 33.5936 12.2396C32.3783 11.0243 30.9026 10.4167 29.1665 10.4167C27.4304 10.4167 25.9547 11.0243 24.7394 12.2396C23.5241 13.4549 22.9165 14.9305 22.9165 16.6667C22.9165 18.4028 23.5241 19.8785 24.7394 21.0937C25.9547 22.309 27.4304 22.9167 29.1665 22.9167ZM16.6665 32.8125C18.229 30.9722 20.104 29.5569 22.2915 28.5667C24.479 27.5778 26.7707 27.0833 29.1665 27.0833C31.5623 27.0833 33.854 27.5778 36.0415 28.5667C38.229 29.5569 40.104 30.9722 41.6665 32.8125V8.33332H16.6665V32.8125ZM16.6665 37.5C15.5207 37.5 14.5401 37.0924 13.7248 36.2771C12.9082 35.4604 12.4998 34.4792 12.4998 33.3333V8.33332C12.4998 7.18749 12.9082 6.20624 13.7248 5.38957C14.5401 4.5743 15.5207 4.16666 16.6665 4.16666H41.6665C42.8123 4.16666 43.7936 4.5743 44.6103 5.38957C45.4255 6.20624 45.8332 7.18749 45.8332 8.33332V33.3333C45.8332 34.4792 45.4255 35.4604 44.6103 36.2771C43.7936 37.0924 42.8123 37.5 41.6665 37.5H16.6665ZM8.33317 45.8333C7.18734 45.8333 6.20678 45.4257 5.3915 44.6104C4.57484 43.7937 4.1665 42.8125 4.1665 41.6667V12.5H8.33317V41.6667H37.4998V45.8333H8.33317ZM29.1665 18.75C28.5762 18.75 28.0818 18.55 27.6832 18.15C27.2832 17.7514 27.0832 17.2569 27.0832 16.6667C27.0832 16.0764 27.2832 15.5812 27.6832 15.1812C28.0818 14.7826 28.5762 14.5833 29.1665 14.5833C29.7568 14.5833 30.2519 14.7826 30.6519 15.1812C31.0505 15.5812 31.2498 16.0764 31.2498 16.6667C31.2498 17.2569 31.0505 17.7514 30.6519 18.15C30.2519 18.55 29.7568 18.75 29.1665 18.75ZM22.2915 33.3333H36.0415C35.0346 32.6389 33.9408 32.118 32.7603 31.7708C31.5797 31.4236 30.3818 31.25 29.1665 31.25C27.9512 31.25 26.7533 31.4236 25.5728 31.7708C24.3922 32.118 23.2984 32.6389 22.2915 33.3333Z" fill="#CDCDCD"/>
</svg>
