<svg width="20" height="20" viewBox="0 0 20 20" fill="none" xmlns="http://www.w3.org/2000/svg">
<path fill-rule="evenodd" clip-rule="evenodd" d="M11.3129 11.4138C9.9155 12.8457 7.64993 12.8457 6.25257 11.4138C4.85521 9.98187 4.85521 7.66027 6.25257 6.22834C7.64993 4.79642 9.9155 4.79642 11.3129 6.22834C12.7102 7.66027 12.7102 9.98187 11.3129 11.4138ZM11.7426 12.7968C9.8297 14.2961 7.08207 14.1494 5.33252 12.3566C3.42703 10.404 3.42703 7.23816 5.33252 5.28553C7.23801 3.33291 10.3274 3.33291 12.2329 5.28553C13.9824 7.07828 14.1256 9.8937 12.6626 11.8539L16.1432 15.4206L15.2232 16.3634L11.7426 12.7968Z" fill="#999999"/>
</svg>
